<svg id="visual" viewBox="0 0 900 600" width="900" height="600" xmlns="http://www.w3.org/2000/svg" xmlns:xlink="http://www.w3.org/1999/xlink" version="1.1"><rect x="0" y="0" width="900" height="600" fill="#140021"></rect><path d="M0 363L129 363L129 277L257 277L257 353L386 353L386 381L514 381L514 373L643 373L643 370L771 370L771 314L900 314L900 315L900 601L900 601L771 601L771 601L643 601L643 601L514 601L514 601L386 601L386 601L257 601L257 601L129 601L129 601L0 601Z" fill="#9900ff"></path><path d="M0 435L129 435L129 350L257 350L257 415L386 415L386 346L514 346L514 348L643 348L643 351L771 351L771 414L900 414L900 398L900 601L900 601L771 601L771 601L643 601L643 601L514 601L514 601L386 601L386 601L257 601L257 601L129 601L129 601L0 601Z" fill="#7700c6"></path><path d="M0 504L129 504L129 488L257 488L257 500L386 500L386 474L514 474L514 465L643 465L643 517L771 517L771 493L900 493L900 456L900 601L900 601L771 601L771 601L643 601L643 601L514 601L514 601L386 601L386 601L257 601L257 601L129 601L129 601L0 601Z" fill="#560090"></path></svg>